
<svg width="28" height="28" viewBox="120 0 28 28" fill="none" xmlns="http://www.w3.org/2000/svg">
<circle cx="134" cy="14" r="14" fill="white"/>
<circle cx="134" cy="14" r="13.5" stroke="black" stroke-opacity="0.2"/>
<path fill-rule="evenodd" clip-rule="evenodd" d="M134.607 7.22656C131.016 7.22656 128.127 10.1155 128.127 13.7065C128.127 16.5684 129.99 18.9984 132.555 19.8624C132.879 19.9164 132.987 19.7274 132.987 19.5384C132.987 19.3764 132.987 18.9714 132.987 18.4314C131.178 18.8364 130.8 17.5674 130.8 17.5674C130.503 16.8114 130.071 16.6224 130.071 16.6224C129.477 16.2174 130.125 16.2174 130.125 16.2174C130.773 16.2714 131.124 16.8924 131.124 16.8924C131.691 17.8914 132.636 17.5944 133.014 17.4324C133.068 17.0004 133.23 16.7304 133.419 16.5684C131.988 16.4064 130.476 15.8394 130.476 13.3555C130.476 12.6535 130.719 12.0595 131.151 11.6275C131.097 11.4655 130.854 10.8175 131.205 9.89952C131.205 9.89952 131.745 9.73752 132.987 10.5745C133.5 10.4395 134.067 10.3585 134.607 10.3585C135.147 10.3585 135.714 10.4395 136.227 10.5745C137.469 9.73752 138.009 9.89952 138.009 9.89952C138.36 10.7905 138.144 11.4385 138.063 11.6275C138.468 12.0865 138.738 12.6535 138.738 13.3555C138.738 15.8394 137.226 16.3794 135.768 16.5414C136.011 16.7304 136.2 17.1354 136.2 17.7294C136.2 18.5934 136.2 19.2954 136.2 19.5114C136.2 19.6734 136.308 19.8894 136.659 19.8354C139.224 18.9984 141.087 16.5684 141.087 13.7065C141.087 10.1155 138.198 7.22656 134.607 7.22656Z" fill="black"/>
</svg>
