
<svg width="28" height="28" viewBox="80 0 28 28" fill="none" xmlns="http://www.w3.org/2000/svg">
<circle cx="94" cy="14" r="14" fill="white"/>
<circle cx="94" cy="14" r="13.5" stroke="black" stroke-opacity="0.2"/>
<path d="M94.0008 8.44721C95.8095 8.44721 96.0237 8.45398 96.7382 8.48656C97.1678 8.49182 97.5933 8.5707 97.9962 8.71979C98.2884 8.83248 98.5538 9.00511 98.7753 9.22656C98.9967 9.44802 99.1694 9.71339 99.282 10.0056C99.4311 10.4085 99.51 10.8341 99.5153 11.2637C99.5475 11.9782 99.5546 12.1924 99.5546 14.0011C99.5546 15.8098 99.5479 16.024 99.5153 16.7385C99.51 17.1681 99.4311 17.5936 99.282 17.9966C99.1694 18.2888 98.9967 18.5541 98.7753 18.7756C98.5538 18.997 98.2884 19.1697 97.9962 19.2824C97.5933 19.4315 97.1678 19.5103 96.7382 19.5156C96.024 19.5479 95.8098 19.5549 94.0008 19.5549C92.1917 19.5549 91.9775 19.5482 91.2633 19.5156C90.8337 19.5103 90.4082 19.4315 90.0053 19.2824C89.7131 19.1697 89.4477 18.997 89.2262 18.7756C89.0048 18.5541 88.8322 18.2888 88.7195 17.9966C88.5704 17.5936 88.4915 17.1681 88.4862 16.7385C88.454 16.024 88.4469 15.8098 88.4469 14.0011C88.4469 12.1924 88.4537 11.9782 88.4862 11.2637C88.4915 10.8341 88.5704 10.4085 88.7195 10.0056C88.8322 9.71339 89.0048 9.44802 89.2262 9.22656C89.4477 9.00511 89.7131 8.83248 90.0053 8.71979C90.4082 8.5707 90.8337 8.49182 91.2633 8.48656C91.9779 8.4543 92.192 8.44721 94.0008 8.44721ZM94.0008 7.22656C92.162 7.22656 91.9304 7.2343 91.2079 7.26721C90.6456 7.27839 90.0893 7.38485 89.5627 7.58205C89.1109 7.75226 88.7017 8.019 88.3637 8.36366C88.0187 8.70184 87.7517 9.11127 87.5814 9.56334C87.3842 10.09 87.2777 10.6463 87.2666 11.2085C87.2343 11.9304 87.2266 12.162 87.2266 14.0008C87.2266 15.8395 87.2343 16.0711 87.2672 16.7937C87.2784 17.3559 87.3848 17.9122 87.582 18.4388C87.7522 18.8908 88.0189 19.3002 88.3637 19.6385C88.7019 19.9832 89.1113 20.25 89.5633 20.4201C90.09 20.6173 90.6463 20.7238 91.2085 20.7349C91.9311 20.7672 92.1617 20.7756 94.0014 20.7756C95.8411 20.7756 96.0717 20.7679 96.7943 20.7349C97.3565 20.7238 97.9128 20.6173 98.4395 20.4201C98.8893 20.2457 99.2978 19.9794 99.6389 19.6381C99.98 19.2968 100.246 18.8882 100.42 18.4382C100.617 17.9115 100.724 17.3553 100.735 16.793C100.767 16.0711 100.775 15.8395 100.775 14.0008C100.775 12.162 100.767 11.9304 100.734 11.2079C100.723 10.6456 100.617 10.0893 100.419 9.56269C100.249 9.11068 99.9826 8.70126 99.6379 8.36301C99.2996 8.01828 98.8902 7.75153 98.4382 7.5814C97.9115 7.3842 97.3553 7.27775 96.793 7.26656C96.0711 7.2343 95.8395 7.22656 94.0008 7.22656Z" fill="black"/>
<path d="M94.0021 10.5234C93.3141 10.5234 92.6416 10.7275 92.0695 11.1097C91.4974 11.492 91.0515 12.0353 90.7882 12.6709C90.5249 13.3066 90.4561 14.006 90.5903 14.6808C90.7245 15.3556 91.0558 15.9755 91.5423 16.462C92.0288 16.9485 92.6487 17.2798 93.3235 17.414C93.9983 17.5482 94.6977 17.4794 95.3334 17.2161C95.969 16.9528 96.5123 16.5069 96.8946 15.9348C97.2768 15.3627 97.4809 14.6902 97.4809 14.0021C97.4809 13.0795 97.1144 12.1947 96.462 11.5423C95.8096 10.8899 94.9248 10.5234 94.0021 10.5234ZM94.0021 16.2602C93.5555 16.2602 93.119 16.1278 92.7476 15.8797C92.3763 15.6315 92.0869 15.2789 91.916 14.8663C91.7451 14.4537 91.7003 13.9996 91.7875 13.5616C91.8746 13.1236 92.0897 12.7213 92.4055 12.4055C92.7213 12.0897 93.1236 11.8746 93.5616 11.7875C93.9996 11.7003 94.4537 11.7451 94.8663 11.916C95.2789 12.0869 95.6315 12.3763 95.8797 12.7476C96.1278 13.119 96.2602 13.5555 96.2602 14.0021C96.2602 14.601 96.0223 15.1754 95.5988 15.5988C95.1754 16.0223 94.601 16.2602 94.0021 16.2602Z" fill="black"/>
<path d="M97.6176 11.1981C98.0665 11.1981 98.4305 10.8341 98.4305 10.3852C98.4305 9.93621 98.0665 9.57227 97.6176 9.57227C97.1686 9.57227 96.8047 9.93621 96.8047 10.3852C96.8047 10.8341 97.1686 11.1981 97.6176 11.1981Z" fill="black"/>
</svg>
