<svg width="15" height="16" viewBox="0 0 15 16" fill="none" xmlns="http://www.w3.org/2000/svg">
  <path d="M3.24267 0.655715C2.96389 0.496474 2.64819 0.413232 2.32714 0.414317C2.00609 0.415402 1.69096 0.500775 1.41326 0.661897C1.13557 0.823018 0.905057 1.05424 0.744785 1.33242C0.584513 1.6106 0.500104 1.926 0.5 2.24705V13.7549C0.500104 14.0759 0.584513 14.3913 0.744785 14.6695C0.905057 14.9477 1.13557 15.1789 1.41326 15.34C1.69096 15.5012 2.00609 15.5865 2.32714 15.5876C2.64819 15.5887 2.96389 15.5055 3.24267 15.3462L13.3113 9.59138C13.5917 9.43097 13.8248 9.19931 13.9869 8.91986C14.1489 8.64041 14.2343 8.3231 14.2343 8.00005C14.2343 7.677 14.1489 7.35969 13.9869 7.08024C13.8248 6.80079 13.5917 6.56913 13.3113 6.40872L3.24267 0.655715Z" fill="#1A3E3E" />
</svg>
