<svg width="96" height="44" viewBox="0 0 96 44" fill="none" xmlns="http://www.w3.org/2000/svg">
<path d="M46.3819 23.9898L49.4969 25.5704C48.8456 26.4028 48.0291 27.0714 47.0474 27.5761C46.0657 28.0809 44.9944 28.3333 43.8333 28.3333C42.5307 28.3333 41.3414 28.0189 40.2653 27.3902C39.1987 26.7615 38.3444 25.9202 37.7026 24.8665C37.0701 23.8038 36.7539 22.6305 36.7539 21.3465C36.7539 20.3725 36.938 19.4648 37.3061 18.6236C37.6742 17.7735 38.1792 17.0296 38.8211 16.3921C39.4724 15.7456 40.2275 15.2409 41.0865 14.8778C41.9455 14.5148 42.8611 14.3333 43.8333 14.3333C44.9944 14.3333 46.0657 14.5856 47.0474 15.0904C48.0291 15.5951 48.8456 16.2725 49.4969 17.1226L46.3819 18.69C46.0516 18.3358 45.6598 18.0613 45.2068 17.8665C44.7631 17.6716 44.3053 17.5742 43.8333 17.5742C43.1537 17.5742 42.5402 17.7513 41.9927 18.1055C41.4452 18.4509 41.011 18.9114 40.6901 19.487C40.3691 20.0537 40.2087 20.6735 40.2087 21.3465C40.2087 22.0107 40.3691 22.6305 40.6901 23.2061C41.011 23.7728 41.4452 24.2289 41.9927 24.5742C42.5402 24.9196 43.1537 25.0923 43.8333 25.0923C44.3242 25.0923 44.7914 24.9949 45.2351 24.8C45.6787 24.5964 46.061 24.3263 46.3819 23.9898Z" fill="white"/>
<path d="M57.8263 28.3333C56.5237 28.3333 55.3343 28.0189 54.2583 27.3902C53.1916 26.7615 52.3374 25.9202 51.6955 24.8665C51.0631 23.8038 50.7469 22.6305 50.7469 21.3465C50.7469 20.3725 50.9309 19.4648 51.299 18.6236C51.6672 17.7735 52.1722 17.0296 52.814 16.3921C53.4654 15.7456 54.2205 15.2409 55.0795 14.8778C55.9384 14.5148 56.854 14.3333 57.8263 14.3333C59.1289 14.3333 60.3135 14.6476 61.3802 15.2763C62.4562 15.905 63.3105 16.7507 63.9429 17.8133C64.5848 18.8759 64.9057 20.0537 64.9057 21.3465C64.9057 22.3117 64.7217 23.215 64.3535 24.0562C63.9854 24.8975 63.4757 25.6413 62.8244 26.2877C62.1825 26.9253 61.4321 27.4256 60.5731 27.7887C59.7236 28.1517 58.808 28.3333 57.8263 28.3333ZM57.8263 25.0923C58.5154 25.0923 59.1336 24.9196 59.6811 24.5742C60.2286 24.2289 60.6581 23.7728 60.9696 23.2061C61.2905 22.6394 61.451 22.0195 61.451 21.3465C61.451 20.6558 61.2858 20.0271 60.9554 19.4604C60.6345 18.8848 60.1955 18.4288 59.6386 18.0923C59.0911 17.7469 58.487 17.5742 57.8263 17.5742C57.1467 17.5742 56.5331 17.7469 55.9856 18.0923C55.4382 18.4376 55.004 18.8981 54.683 19.4737C54.3621 20.0493 54.2016 20.6735 54.2016 21.3465C54.2016 22.0461 54.3668 22.6792 54.6972 23.246C55.0275 23.8127 55.4665 24.2643 56.014 24.6008C56.5709 24.9284 57.175 25.0923 57.8263 25.0923Z" fill="white"/>
<path d="M75.9441 23.9898L79.0591 25.5704C78.4077 26.4028 77.5913 27.0714 76.6096 27.5761C75.6279 28.0809 74.5565 28.3333 73.3955 28.3333C72.0929 28.3333 70.9035 28.0189 69.8275 27.3902C68.7608 26.7615 67.9066 25.9202 67.2647 24.8665C66.6323 23.8038 66.3161 22.6305 66.3161 21.3465C66.3161 20.3725 66.5001 19.4648 66.8683 18.6236C67.2364 17.7735 67.7414 17.0296 68.3833 16.3921C69.0346 15.7456 69.7897 15.2409 70.6487 14.8778C71.5077 14.5148 72.4233 14.3333 73.3955 14.3333C74.5565 14.3333 75.6279 14.5856 76.6096 15.0904C77.5913 15.5951 78.4077 16.2725 79.0591 17.1226L75.9441 18.69C75.6137 18.3358 75.222 18.0613 74.7689 17.8665C74.3253 17.6716 73.8675 17.5742 73.3955 17.5742C72.7159 17.5742 72.1023 17.7513 71.5549 18.1055C71.0074 18.4509 70.5732 18.9114 70.2522 19.487C69.9313 20.0537 69.7708 20.6735 69.7708 21.3465C69.7708 22.0107 69.9313 22.6305 70.2522 23.2061C70.5732 23.7728 71.0074 24.2289 71.5549 24.5742C72.1023 24.9196 72.7159 25.0923 73.3955 25.0923C73.8864 25.0923 74.3536 24.9949 74.7972 24.8C75.2409 24.5964 75.6232 24.3263 75.9441 23.9898Z" fill="white"/>
<path d="M91.8343 14.7052H95.2891V27.9879H91.8343L91.6786 26.3408C91.2916 26.9341 90.7771 27.4167 90.1353 27.7887C89.5028 28.1517 88.7524 28.3333 87.884 28.3333C86.8363 28.3333 85.8546 28.1473 84.939 27.7754C84.0234 27.4035 83.2163 26.8899 82.5178 26.2346C81.8287 25.5793 81.286 24.8222 80.8895 23.9632C80.5025 23.1043 80.309 22.1833 80.309 21.2004C80.309 20.2529 80.4931 19.363 80.8612 18.5306C81.2388 17.6982 81.7627 16.9677 82.4328 16.3389C83.103 15.7102 83.8771 15.2188 84.7549 14.8646C85.6328 14.5104 86.5767 14.3333 87.5867 14.3333C88.5212 14.3333 89.3565 14.5281 90.0928 14.9177C90.8385 15.3073 91.4709 15.8032 91.9901 16.4054L91.8343 14.7052ZM87.7991 25.2118C88.5353 25.2118 89.1866 25.0391 89.753 24.6938C90.3193 24.3484 90.763 23.8835 91.0839 23.2991C91.4049 22.7058 91.5653 22.0549 91.5653 21.3465C91.5653 20.6293 91.4049 19.9784 91.0839 19.394C90.763 18.8007 90.3146 18.3314 89.7388 17.986C89.1725 17.6407 88.5259 17.468 87.7991 17.468C87.0722 17.468 86.4068 17.6451 85.8027 17.9993C85.208 18.3446 84.7313 18.8095 84.3726 19.394C84.0234 19.9784 83.8487 20.6293 83.8487 21.3465C83.8487 22.0638 84.0281 22.7147 84.3868 23.2991C84.7455 23.8835 85.2221 24.3484 85.8168 24.6938C86.4209 25.0391 87.0817 25.2118 87.7991 25.2118Z" fill="white"/>
<ellipse cx="14.2935" cy="20.333" rx="14.2935" ry="14" fill="white"/>
<path d="M18.6827 23.6274L21.7808 25.1606C21.0257 26.122 20.0652 26.8911 18.8992 27.468C17.7444 28.0448 16.4896 28.3333 15.1348 28.3333C13.6025 28.3333 12.2033 27.974 10.9374 27.2555C9.68265 26.5369 8.67771 25.5755 7.92262 24.3712C7.17863 23.1568 6.80664 21.8159 6.80664 20.3484C6.80664 19.2352 7.02317 18.1979 7.45624 17.2365C7.88931 16.2649 8.48339 15.4148 9.23848 14.6862C10.0047 13.9474 10.893 13.3706 11.9035 12.9556C12.914 12.5407 13.9911 12.3333 15.1348 12.3333C16.4896 12.3333 17.7444 12.6217 18.8992 13.1985C20.0652 13.7754 21.0257 14.5496 21.7808 15.5211L18.6827 17.0543C18.2163 16.5483 17.6722 16.1637 17.0503 15.9006C16.4285 15.6274 15.79 15.4907 15.1348 15.4907C14.2243 15.4907 13.397 15.7185 12.653 16.1739C11.9202 16.6191 11.3372 17.2112 10.9041 17.9499C10.4822 18.6786 10.2712 19.4781 10.2712 20.3484C10.2712 21.2086 10.4877 22.0081 10.9208 22.7469C11.3538 23.4756 11.9368 24.0625 12.6697 24.5078C13.4137 24.9531 14.2354 25.1758 15.1348 25.1758C15.8233 25.1758 16.4785 25.0341 17.1003 24.7507C17.7221 24.4673 18.2496 24.0929 18.6827 23.6274Z" fill="#1D1E25"/>
</svg>
