<svg width="112" height="52" viewBox="0 0 112 52" fill="none" xmlns="http://www.w3.org/2000/svg">
<path d="M54.5156 28.3517L58.1768 30.2197C57.4113 31.2034 56.4516 31.9936 55.2978 32.5901C54.144 33.1866 52.8847 33.4848 51.5201 33.4848C49.9891 33.4848 48.5912 33.1133 47.3264 32.3703C46.0727 31.6273 45.0686 30.6331 44.3142 29.3877C43.5709 28.1319 43.1992 26.7453 43.1992 25.2278C43.1992 24.0766 43.4156 23.004 43.8482 22.0098C44.2809 21.0051 44.8745 20.126 45.6289 19.3725C46.3944 18.6086 47.282 18.0121 48.2916 17.583C49.3012 17.1539 50.3774 16.9394 51.5201 16.9394C52.8847 16.9394 54.144 17.2376 55.2978 17.8342C56.4516 18.4307 57.4113 19.2313 58.1768 20.2359L54.5156 22.0883C54.1273 21.6697 53.6669 21.3452 53.1344 21.115C52.6129 20.8848 52.0748 20.7696 51.5201 20.7696C50.7213 20.7696 50.0002 20.979 49.3567 21.3976C48.7132 21.8057 48.2028 22.3499 47.8256 23.0301C47.4484 23.6999 47.2598 24.4325 47.2598 25.2278C47.2598 26.0127 47.4484 26.7453 47.8256 27.4255C48.2028 28.0953 48.7132 28.6342 49.3567 29.0424C50.0002 29.4505 50.7213 29.6546 51.5201 29.6546C52.097 29.6546 52.6462 29.5395 53.1676 29.3092C53.6891 29.0685 54.1384 28.7494 54.5156 28.3517Z" fill="#101010"/>
<path d="M67.9669 33.4848C66.4358 33.4848 65.0379 33.1133 63.7731 32.3703C62.5195 31.6273 61.5154 30.6331 60.761 29.3877C60.0177 28.1319 59.646 26.7453 59.646 25.2278C59.646 24.0766 59.8623 23.004 60.295 22.0098C60.7277 21.0051 61.3213 20.126 62.0757 19.3725C62.8412 18.6086 63.7288 18.0121 64.7384 17.583C65.748 17.1539 66.8241 16.9394 67.9669 16.9394C69.4979 16.9394 70.8903 17.3109 72.144 18.0539C73.4087 18.797 74.4128 19.7964 75.1561 21.0522C75.9106 22.308 76.2878 23.6999 76.2878 25.2278C76.2878 26.3685 76.0714 27.436 75.6387 28.4302C75.2061 29.4244 74.607 30.3034 73.8414 31.0674C73.087 31.8209 72.205 32.4122 71.1954 32.8412C70.1969 33.2703 69.1207 33.4848 67.9669 33.4848ZM67.9669 29.6546C68.7768 29.6546 69.5035 29.4505 70.147 29.0424C70.7904 28.6342 71.2952 28.0953 71.6614 27.4255C72.0386 26.7557 72.2272 26.0232 72.2272 25.2278C72.2272 24.4115 72.033 23.6685 71.6447 22.9987C71.2675 22.3185 70.7516 21.7795 70.097 21.3819C69.4535 20.9737 68.7435 20.7696 67.9669 20.7696C67.1681 20.7696 66.4469 20.9737 65.8034 21.3819C65.16 21.79 64.6496 22.3342 64.2724 23.0144C63.8952 23.6947 63.7066 24.4325 63.7066 25.2278C63.7066 26.0546 63.9007 26.8028 64.289 27.4726C64.6773 28.1424 65.1932 28.6761 65.8367 29.0738C66.4913 29.461 67.2014 29.6546 67.9669 29.6546Z" fill="#101010"/>
<path d="M89.2619 28.3517L92.9231 30.2197C92.1575 31.2034 91.1979 31.9936 90.044 32.5901C88.8902 33.1866 87.631 33.4848 86.2663 33.4848C84.7353 33.4848 83.3374 33.1133 82.0726 32.3703C80.8189 31.6273 79.8149 30.6331 79.0604 29.3877C78.3171 28.1319 77.9454 26.7453 77.9454 25.2278C77.9454 24.0766 78.1618 23.004 78.5945 22.0098C79.0272 21.0051 79.6207 20.126 80.3751 19.3725C81.1407 18.6086 82.0282 18.0121 83.0378 17.583C84.0474 17.1539 85.1236 16.9394 86.2663 16.9394C87.631 16.9394 88.8902 17.2376 90.044 17.8342C91.1979 18.4307 92.1575 19.2313 92.9231 20.2359L89.2619 22.0883C88.8736 21.6697 88.4131 21.3452 87.8806 21.115C87.3591 20.8848 86.8211 20.7696 86.2663 20.7696C85.4675 20.7696 84.7464 20.979 84.1029 21.3976C83.4594 21.8057 82.9491 22.3499 82.5719 23.0301C82.1947 23.6999 82.006 24.4325 82.006 25.2278C82.006 26.0127 82.1947 26.7453 82.5719 27.4255C82.9491 28.0953 83.4594 28.6342 84.1029 29.0424C84.7464 29.4505 85.4675 29.6546 86.2663 29.6546C86.8433 29.6546 87.3924 29.5395 87.9139 29.3092C88.4353 29.0685 88.8847 28.7494 89.2619 28.3517Z" fill="#101010"/>
<path d="M107.939 17.3789H111.999V33.0767H107.939L107.756 31.1302C107.301 31.8313 106.696 32.4017 105.942 32.8412C105.198 33.2703 104.316 33.4848 103.296 33.4848C102.064 33.4848 100.91 33.2651 99.8341 32.8255C98.7579 32.386 97.8093 31.779 96.9883 31.0046C96.1784 30.2302 95.5405 29.3354 95.0745 28.3203C94.6196 27.3052 94.3922 26.2168 94.3922 25.0551C94.3922 23.9354 94.6086 22.8836 95.0412 21.8999C95.485 20.9162 96.1008 20.0528 96.8885 19.3098C97.6762 18.5667 98.5859 17.9859 99.6177 17.5673C100.65 17.1487 101.759 16.9394 102.946 16.9394C104.044 16.9394 105.026 17.1696 105.892 17.6301C106.768 18.0906 107.511 18.6766 108.122 19.3882L107.939 17.3789ZM103.196 29.7959C104.061 29.7959 104.827 29.5918 105.492 29.1837C106.158 28.7755 106.679 28.2261 107.057 27.5354C107.434 26.8342 107.622 26.065 107.622 25.2278C107.622 24.3801 107.434 23.6109 107.057 22.9202C106.679 22.2191 106.152 21.6644 105.476 21.2563C104.81 20.8481 104.05 20.6441 103.196 20.6441C102.341 20.6441 101.559 20.8534 100.849 21.272C100.15 21.6801 99.59 22.2295 99.1684 22.9202C98.7579 23.6109 98.5527 24.3801 98.5527 25.2278C98.5527 26.0755 98.7635 26.8447 99.185 27.5354C99.6066 28.2261 100.167 28.7755 100.866 29.1837C101.576 29.5918 102.353 29.7959 103.196 29.7959Z" fill="#101010"/>
<ellipse cx="16.8" cy="24.0303" rx="16.8" ry="16.5455" fill="#101010"/>
<path d="M21.9586 27.9234L25.6 29.7353C24.7125 30.8716 23.5835 31.7805 22.2131 32.4623C20.8558 33.144 19.3809 33.4849 17.7887 33.4849C15.9875 33.4849 14.343 33.0603 12.8552 32.2111C11.3803 31.3619 10.1992 30.2257 9.31168 28.8024C8.43723 27.3672 8 25.7825 8 24.0483C8 22.7326 8.25451 21.5067 8.76352 20.3705C9.27253 19.2223 9.97078 18.2177 10.8583 17.3565C11.7588 16.4834 12.803 15.8017 13.9907 15.3113C15.1783 14.821 16.4443 14.5758 17.7887 14.5758C19.3809 14.5758 20.8558 14.9166 22.2131 15.5984C23.5835 16.2801 24.7125 17.1951 25.6 18.3432L21.9586 20.1552C21.4105 19.5572 20.7709 19.1027 20.04 18.7917C19.3092 18.4688 18.5587 18.3074 17.7887 18.3074C16.7184 18.3074 15.7461 18.5765 14.8716 19.1147C14.0102 19.6409 13.325 20.3406 12.816 21.2137C12.3201 22.0748 12.0721 23.0197 12.0721 24.0483C12.0721 25.0649 12.3266 26.0097 12.8356 26.8828C13.3446 27.744 14.0298 28.4377 14.8912 28.9639C15.7657 29.4902 16.7315 29.7533 17.7887 29.7533C18.5978 29.7533 19.3679 29.5858 20.0988 29.251C20.8297 28.9161 21.4496 28.4735 21.9586 27.9234Z" fill="white"/>
</svg>
