<svg xmlns="http://www.w3.org/2000/svg">
	<symbol id="overview-1"  viewBox="0 0 40 40" fill="none">
		<path d="M13.3333 11.6667V5M26.6667 11.6667V5M11.6667 18.3333H28.3333M8.33333 35H31.6667C33.5076 35 35 33.5076 35 31.6667V11.6667C35 9.82572 33.5076 8.33333 31.6667 8.33333H8.33333C6.49238 8.33333 5 9.82572 5 11.6667V31.6667C5 33.5076 6.49238 35 8.33333 35Z" stroke="white" stroke-width="3" stroke-linecap="round" stroke-linejoin="round" />
	</symbol>
	<symbol id="overview-2" viewBox="0 0 40 40" fill="none">
		<path d="M16.0608 22.2727C15.475 21.6869 14.5253 21.6869 13.9395 22.2727C13.3537 22.8585 13.3537 23.8082 13.9395 24.394L16.0608 22.2727ZM18.3335 26.6667L17.2728 27.7273C17.8586 28.3131 18.8084 28.3131 19.3942 27.7273L18.3335 26.6667ZM26.0608 21.0607C26.6466 20.4749 26.6466 19.5251 26.0608 18.9393C25.475 18.3536 24.5253 18.3536 23.9395 18.9393L26.0608 21.0607ZM30.1668 11.6667V31.6667H33.1668V11.6667H30.1668ZM28.3335 33.5H11.6668V36.5H28.3335V33.5ZM9.8335 31.6667V11.6667H6.8335V31.6667H9.8335ZM11.6668 9.83333H15.0002V6.83333H11.6668V9.83333ZM25.0002 9.83333H28.3335V6.83333H25.0002V9.83333ZM11.6668 33.5C10.6543 33.5 9.8335 32.6792 9.8335 31.6667H6.8335C6.8335 34.336 8.99745 36.5 11.6668 36.5V33.5ZM30.1668 31.6667C30.1668 32.6792 29.346 33.5 28.3335 33.5V36.5C31.0029 36.5 33.1668 34.336 33.1668 31.6667H30.1668ZM33.1668 11.6667C33.1668 8.99729 31.0029 6.83333 28.3335 6.83333V9.83333C29.346 9.83333 30.1668 10.6541 30.1668 11.6667H33.1668ZM9.8335 11.6667C9.8335 10.6541 10.6543 9.83333 11.6668 9.83333V6.83333C8.99745 6.83333 6.8335 8.99729 6.8335 11.6667H9.8335ZM13.9395 24.394L17.2728 27.7273L19.3942 25.606L16.0608 22.2727L13.9395 24.394ZM19.3942 27.7273L26.0608 21.0607L23.9395 18.9393L17.2728 25.606L19.3942 27.7273ZM18.3335 6.5H21.6668V3.5H18.3335V6.5ZM21.6668 10.1667H18.3335V13.1667H21.6668V10.1667ZM18.3335 10.1667C17.321 10.1667 16.5002 9.34586 16.5002 8.33333H13.5002C13.5002 11.0027 15.6641 13.1667 18.3335 13.1667V10.1667ZM23.5002 8.33333C23.5002 9.34586 22.6794 10.1667 21.6668 10.1667V13.1667C24.3362 13.1667 26.5002 11.0027 26.5002 8.33333H23.5002ZM21.6668 6.5C22.6794 6.5 23.5002 7.32081 23.5002 8.33333H26.5002C26.5002 5.66396 24.3362 3.5 21.6668 3.5V6.5ZM18.3335 3.5C15.6641 3.5 13.5002 5.66396 13.5002 8.33333H16.5002C16.5002 7.32081 17.321 6.5 18.3335 6.5V3.5Z" fill="white" />
	</symbol>
	<symbol id="overview-3" viewBox="0 0 40 40" fill="none">
		<path d="M15.0002 8.33333H11.6668C9.82588 8.33333 8.3335 9.82572 8.3335 11.6667V31.6667C8.3335 33.5076 9.82588 35 11.6668 35H28.3335C30.1744 35 31.6668 33.5076 31.6668 31.6667V11.6667C31.6668 9.82572 30.1744 8.33333 28.3335 8.33333H25.0002M15.0002 8.33333C15.0002 10.1743 16.4925 11.6667 18.3335 11.6667H21.6668C23.5078 11.6667 25.0002 10.1743 25.0002 8.33333M15.0002 8.33333C15.0002 6.49238 16.4925 5 18.3335 5H21.6668C23.5078 5 25.0002 6.49238 25.0002 8.33333M20.0002 20H25.0002M20.0002 26.6667H25.0002M15.0002 20H15.0168M15.0002 26.6667H15.0168" stroke="white" stroke-width="3" stroke-linecap="round" fill="none" />
	</symbol>
	<symbol id="overview-4" viewBox="0 0 40 40" fill="none">
		<path d="M15 20L18.3333 23.3334L25 16.6667M34.3632 9.9739C34.0221 9.9912 33.6787 9.99995 33.3333 9.99995C28.2109 9.99995 23.5383 8.07422 19.9999 4.90723C16.4615 8.0741 11.789 9.99975 6.66667 9.99975C6.32129 9.99975 5.97796 9.99099 5.63688 9.9737C5.22117 11.5797 5 13.264 5 15C5 24.3192 11.3739 32.1497 20 34.3699C28.6261 32.1497 35 24.3192 35 15C35 13.2641 34.7788 11.5799 34.3632 9.9739Z" stroke="white" stroke-width="3" stroke-linecap="round" stroke-linejoin="round" />
	</symbol>
	<symbol id="arrow" viewBox="0 0 16 16">
	  <path fill-rule="evenodd" clip-rule="evenodd" d="M8.23392 2.63422C8.54634 2.3218 9.05288 2.3218 9.3653 2.63422L14.1653 7.43422C14.4777 7.74664 14.4777 8.25317 14.1653 8.56559L9.3653 13.3656C9.05288 13.678 8.54634 13.678 8.23392 13.3656C7.92151 13.0532 7.92151 12.5466 8.23392 12.2342L11.6682 8.7999L2.39961 8.7999C1.95778 8.7999 1.59961 8.44173 1.59961 7.9999C1.59961 7.55808 1.95778 7.1999 2.39961 7.1999H11.6682L8.23392 3.76559C7.92151 3.45317 7.92151 2.94664 8.23392 2.63422Z" />
	</symbol>
	<symbol id="facebook" viewBox="0 0 24 24">
		<g clip-path="url(#clip0_266_7984)">
			<path d="M24 12C24 5.37258 18.6274 0 12 0C5.37258 0 0 5.37258 0 12C0 17.9895 4.3882 22.954 10.125 23.8542V15.4687H7.07812V12H10.125V9.35625C10.125 6.34875 11.9166 4.6875 14.6576 4.6875C15.9701 4.6875 17.3438 4.92187 17.3438 4.92187V7.875H15.8306C14.34 7.875 13.875 8.80008 13.875 9.75V12H17.2031L16.6711 15.4687H13.875V23.8542C19.6118 22.954 24 17.9895 24 12Z" />
		</g>
		<defs>
			<clipPath id="clip0_266_7984">
				<rect width="24" height="24" />
			</clipPath>
		</defs>
	</symbol>
	<symbol id="twitter" viewBox="0 0 24 24">
		<path d="M7.55016 21.7502C16.6045 21.7502 21.5583 14.2469 21.5583 7.74211C21.5583 7.53117 21.5536 7.31554 21.5442 7.1046C22.5079 6.40771 23.3395 5.5445 24 4.55554C23.1025 4.95484 22.1496 5.21563 21.1739 5.32898C22.2013 4.71315 22.9705 3.74572 23.3391 2.60601C22.3726 3.1788 21.3156 3.58286 20.2134 3.80085C19.4708 3.01181 18.489 2.48936 17.4197 2.3143C16.3504 2.13923 15.2532 2.32129 14.2977 2.83234C13.3423 3.34339 12.5818 4.15495 12.1338 5.14156C11.6859 6.12816 11.5754 7.23486 11.8195 8.29054C9.86249 8.19233 7.94794 7.68395 6.19998 6.79834C4.45203 5.91274 2.90969 4.66968 1.67297 3.14976C1.0444 4.23349 0.852057 5.51589 1.13503 6.73634C1.418 7.95678 2.15506 9.02369 3.19641 9.72023C2.41463 9.69541 1.64998 9.48492 0.965625 9.10617V9.1671C0.964925 10.3044 1.3581 11.4068 2.07831 12.287C2.79852 13.1672 3.80132 13.7708 4.91625 13.9952C4.19206 14.1934 3.43198 14.2222 2.69484 14.0796C3.00945 15.0577 3.62157 15.9131 4.44577 16.5266C5.26997 17.14 6.26512 17.4808 7.29234 17.5015C5.54842 18.8714 3.39417 19.6144 1.17656 19.6109C0.783287 19.6103 0.390399 19.5861 0 19.5387C2.25286 20.984 4.87353 21.7516 7.55016 21.7502Z" />
	</symbol>
	<symbol id="instagram" viewBox="0 0 24 24">
		<g clip-path="url(#clip0_266_7988)">
			<path d="M12 2.16094C15.2063 2.16094 15.5859 2.175 16.8469 2.23125C18.0188 2.28281 18.6516 2.47969 19.0734 2.64375C19.6313 2.85938 20.0344 3.12188 20.4516 3.53906C20.8734 3.96094 21.1313 4.35938 21.3469 4.91719C21.5109 5.33906 21.7078 5.97656 21.7594 7.14375C21.8156 8.40938 21.8297 8.78906 21.8297 11.9906C21.8297 15.1969 21.8156 15.5766 21.7594 16.8375C21.7078 18.0094 21.5109 18.6422 21.3469 19.0641C21.1313 19.6219 20.8688 20.025 20.4516 20.4422C20.0297 20.8641 19.6313 21.1219 19.0734 21.3375C18.6516 21.5016 18.0141 21.6984 16.8469 21.75C15.5813 21.8063 15.2016 21.8203 12 21.8203C8.79375 21.8203 8.41406 21.8063 7.15313 21.75C5.98125 21.6984 5.34844 21.5016 4.92656 21.3375C4.36875 21.1219 3.96563 20.8594 3.54844 20.4422C3.12656 20.0203 2.86875 19.6219 2.65313 19.0641C2.48906 18.6422 2.29219 18.0047 2.24063 16.8375C2.18438 15.5719 2.17031 15.1922 2.17031 11.9906C2.17031 8.78438 2.18438 8.40469 2.24063 7.14375C2.29219 5.97188 2.48906 5.33906 2.65313 4.91719C2.86875 4.35938 3.13125 3.95625 3.54844 3.53906C3.97031 3.11719 4.36875 2.85938 4.92656 2.64375C5.34844 2.47969 5.98594 2.28281 7.15313 2.23125C8.41406 2.175 8.79375 2.16094 12 2.16094ZM12 0C8.74219 0 8.33438 0.0140625 7.05469 0.0703125C5.77969 0.126563 4.90313 0.332813 4.14375 0.628125C3.35156 0.9375 2.68125 1.34531 2.01563 2.01563C1.34531 2.68125 0.9375 3.35156 0.628125 4.13906C0.332813 4.90313 0.126563 5.775 0.0703125 7.05C0.0140625 8.33438 0 8.74219 0 12C0 15.2578 0.0140625 15.6656 0.0703125 16.9453C0.126563 18.2203 0.332813 19.0969 0.628125 19.8563C0.9375 20.6484 1.34531 21.3188 2.01563 21.9844C2.68125 22.65 3.35156 23.0625 4.13906 23.3672C4.90313 23.6625 5.775 23.8688 7.05 23.925C8.32969 23.9813 8.7375 23.9953 11.9953 23.9953C15.2531 23.9953 15.6609 23.9813 16.9406 23.925C18.2156 23.8688 19.0922 23.6625 19.8516 23.3672C20.6391 23.0625 21.3094 22.65 21.975 21.9844C22.6406 21.3188 23.0531 20.6484 23.3578 19.8609C23.6531 19.0969 23.8594 18.225 23.9156 16.95C23.9719 15.6703 23.9859 15.2625 23.9859 12.0047C23.9859 8.74688 23.9719 8.33906 23.9156 7.05938C23.8594 5.78438 23.6531 4.90781 23.3578 4.14844C23.0625 3.35156 22.6547 2.68125 21.9844 2.01563C21.3188 1.35 20.6484 0.9375 19.8609 0.632813C19.0969 0.3375 18.225 0.13125 16.95 0.075C15.6656 0.0140625 15.2578 0 12 0Z" />
			<path d="M12 5.83594C8.59688 5.83594 5.83594 8.59688 5.83594 12C5.83594 15.4031 8.59688 18.1641 12 18.1641C15.4031 18.1641 18.1641 15.4031 18.1641 12C18.1641 8.59688 15.4031 5.83594 12 5.83594ZM12 15.9984C9.79219 15.9984 8.00156 14.2078 8.00156 12C8.00156 9.79219 9.79219 8.00156 12 8.00156C14.2078 8.00156 15.9984 9.79219 15.9984 12C15.9984 14.2078 14.2078 15.9984 12 15.9984Z" />
			<path d="M19.8469 5.59238C19.8469 6.38926 19.2 7.03145 18.4078 7.03145C17.6109 7.03145 16.9688 6.38457 16.9688 5.59238C16.9688 4.79551 17.6156 4.15332 18.4078 4.15332C19.2 4.15332 19.8469 4.8002 19.8469 5.59238Z" />
		</g>
		<defs>
			<clipPath id="clip0_266_7988">
				<rect width="24" height="24" />
			</clipPath>
		</defs>
	</symbol>
	<symbol id="linkedin" viewBox="0 0 24 24">
		<g clip-path="url(#clip0_266_7993)">
			<path d="M22.2234 0H1.77187C0.792187 0 0 0.773438 0 1.72969V22.2656C0 23.2219 0.792187 24 1.77187 24H22.2234C23.2031 24 24 23.2219 24 22.2703V1.72969C24 0.773438 23.2031 0 22.2234 0ZM7.12031 20.4516H3.55781V8.99531H7.12031V20.4516ZM5.33906 7.43438C4.19531 7.43438 3.27188 6.51094 3.27188 5.37187C3.27188 4.23281 4.19531 3.30937 5.33906 3.30937C6.47813 3.30937 7.40156 4.23281 7.40156 5.37187C7.40156 6.50625 6.47813 7.43438 5.33906 7.43438ZM20.4516 20.4516H16.8937V14.8828C16.8937 13.5562 16.8703 11.8453 15.0422 11.8453C13.1906 11.8453 12.9094 13.2937 12.9094 14.7891V20.4516H9.35625V8.99531H12.7687V10.5609H12.8156C13.2891 9.66094 14.4516 8.70938 16.1813 8.70938C19.7859 8.70938 20.4516 11.0813 20.4516 14.1656V20.4516Z" />
		</g>
		<defs>
			<clipPath id="clip0_266_7993">
				<rect width="24" height="24" />
			</clipPath>
		</defs>
	</symbol>
	<symbol id="linkedin-stroke" viewBox="0 0 18 17">
		<path d="M4.54597 1.88204C4.52244 0.813846 3.75857 0.000244141 2.51815 0.000244141C1.27774 0.000244141 0.466797 0.813846 0.466797 1.88204C0.466797 2.92811 1.25377 3.76514 2.47108 3.76514H2.49426C3.75857 3.76514 4.54597 2.92811 4.54597 1.88204Z" />
		<path d="M4.30716 5.2522H0.681213V16.1467H4.30716V5.2522Z" />
		<path d="M13.2089 4.99634C15.5949 4.99634 17.3837 6.55377 17.3837 9.90008L17.3836 16.1466H13.7578V10.3181C13.7578 8.85408 13.2331 7.85508 11.9205 7.85508C10.9187 7.85508 10.3221 8.52855 10.06 9.17903C9.96413 9.41215 9.94059 9.73695 9.94059 10.0626V16.1469H6.31421C6.31421 16.1469 6.362 6.27473 6.31421 5.25245H9.94059V6.79556C10.4218 6.05376 11.2838 4.99634 13.2089 4.99634Z" />
	</symbol>
	<symbol id="heart" viewBox="0 0 24 24">
		<path d="M4.31802 6.31802C2.56066 8.07538 2.56066 10.9246 4.31802 12.682L12.0001 20.364L19.682 12.682C21.4393 10.9246 21.4393 8.07538 19.682 6.31802C17.9246 4.56066 15.0754 4.56066 13.318 6.31802L12.0001 7.63609L10.682 6.31802C8.92462 4.56066 6.07538 4.56066 4.31802 6.31802Z"  stroke-width="2" stroke-linecap="round" stroke-linejoin="round" />
	</symbol>
	<symbol id="popular" viewBox="0 0 24 24">
		<path d="M13 10V3L4 14H11L11 21L20 10L13 10Z" stroke-width="2" stroke-linecap="round" stroke-linejoin="round" />
	</symbol>
	<symbol id="crown" viewBox="0 0 24 24">
		<path d="M2 8L3.304 9.043C3.75828 9.40635 4.28636 9.66624 4.85139 9.80456C5.41643 9.94287 6.00484 9.95628 6.57559 9.84384C7.14634 9.7314 7.6857 9.49583 8.15606 9.15355C8.62642 8.81126 9.01647 8.3705 9.299 7.862L12 3L14.701 7.862C14.9836 8.37042 15.3737 8.81109 15.8441 9.15328C16.3145 9.49546 16.8539 9.73093 17.4247 9.84327C17.9954 9.95561 18.5838 9.94212 19.1488 9.80373C19.7138 9.66534 20.2418 9.40539 20.696 9.042L22 8L20.246 16.77C20.1694 17.1527 20.0065 17.5129 19.7696 17.8231C19.5327 18.1333 19.2281 18.3854 18.879 18.56C16.7432 19.628 14.388 20.184 12 20.184C9.61202 20.184 7.25684 19.628 5.121 18.56C4.77193 18.3854 4.46733 18.1333 4.23043 17.8231C3.99353 17.5129 3.83058 17.1527 3.754 16.77L2 8Z"  stroke-width="2" stroke-linecap="round" stroke-linejoin="round" />
		<path d="M8 15C10.596 16.333 13.404 16.333 16 15" stroke-width="2" stroke-linecap="round" stroke-linejoin="round" />
	</symbol>
</svg>
