<?xml version="1.0" standalone="no"?>
<!DOCTYPE svg PUBLIC "-//W3C//DTD SVG 20010904//EN"
 "http://www.w3.org/TR/2001/REC-SVG-20010904/DTD/svg10.dtd">
<svg version="1.0" xmlns="http://www.w3.org/2000/svg"
 width="72.000000pt" height="72.000000pt" viewBox="0 0 72.000000 72.000000"
 preserveAspectRatio="xMidYMid meet">
<metadata>
Created by potrace 1.14, written by Peter Selinger 2001-2017
</metadata>
<g transform="translate(0.000000,72.000000) scale(0.100000,-0.100000)"
fill="#000000" stroke="none">
<path d="M434 622 c-124 -116 -199 -182 -204 -182 -4 0 -31 18 -60 40 -58 43
-67 46 -90 27 -45 -37 -44 -43 12 -97 l53 -51 -46 -42 c-60 -56 -64 -69 -29
-96 16 -11 33 -21 38 -21 5 0 33 18 62 40 29 22 56 40 59 40 6 0 105 -88 206
-182 27 -26 59 -48 69 -48 30 0 166 69 167 85 4 44 4 442 1 453 -5 16 -142 82
-169 82 -10 0 -41 -22 -69 -48z m83 -257 c0 -142 -4 -152 -43 -117 -10 9 -47
38 -81 64 l-63 46 43 34 c23 18 47 36 52 41 67 52 88 67 90 67 1 0 2 -61 2
-135z"/>
</g>
</svg>
