<svg width="24" height="24" viewBox="0 0 24 24" fill="none" xmlns="http://www.w3.org/2000/svg">
  <path fill-rule="evenodd" clip-rule="evenodd" d="M3.5999 3.6001C2.93716 3.6001 2.3999 4.13736 2.3999 4.8001C2.3999 5.46284 2.93716 6.0001 3.5999 6.0001V15.6001C3.5999 16.9256 4.67442 18.0001 5.9999 18.0001H9.10285L7.55137 19.5516C7.08275 20.0202 7.08275 20.78 7.55137 21.2486C8.02 21.7173 8.7798 21.7173 9.24843 21.2486L11.9999 18.4972L14.7514 21.2486C15.22 21.7173 15.9798 21.7173 16.4484 21.2486C16.9171 20.78 16.9171 20.0202 16.4484 19.5516L14.897 18.0001H17.9999C19.3254 18.0001 20.3999 16.9256 20.3999 15.6001V6.0001C21.0626 6.0001 21.5999 5.46284 21.5999 4.8001C21.5999 4.13736 21.0626 3.6001 20.3999 3.6001H3.5999ZM17.6484 9.24863C18.1171 8.78 18.1171 8.0202 17.6484 7.55157C17.1798 7.08294 16.42 7.08294 15.9514 7.55157L11.9999 11.503L10.4484 9.95157C9.9798 9.48294 9.22 9.48294 8.75137 9.95157L6.35137 12.3516C5.88275 12.8202 5.88275 13.58 6.35137 14.0486C6.82 14.5173 7.5798 14.5173 8.04843 14.0486L9.5999 12.4972L11.1514 14.0486C11.62 14.5173 12.3798 14.5173 12.8484 14.0486L17.6484 9.24863Z" fill="white" />
</svg>
