<svg width="24" height="24" viewBox="0 0 24 24" fill="none" xmlns="http://www.w3.org/2000/svg">
  <path d="M15.6002 5.9999C15.6002 7.98813 13.9884 9.5999 12.0002 9.5999C10.012 9.5999 8.4002 7.98813 8.4002 5.9999C8.4002 4.01168 10.012 2.3999 12.0002 2.3999C13.9884 2.3999 15.6002 4.01168 15.6002 5.9999Z" fill="white" />
  <path d="M21.6002 8.3999C21.6002 9.72539 20.5257 10.7999 19.2002 10.7999C17.8747 10.7999 16.8002 9.72539 16.8002 8.3999C16.8002 7.07442 17.8747 5.9999 19.2002 5.9999C20.5257 5.9999 21.6002 7.07442 21.6002 8.3999Z" fill="white" />
  <path d="M16.8002 16.7999C16.8002 14.1489 14.6512 11.9999 12.0002 11.9999C9.34923 11.9999 7.2002 14.1489 7.2002 16.7999V20.3999H16.8002V16.7999Z" fill="white" />
  <path d="M7.2002 8.3999C7.2002 9.72539 6.12568 10.7999 4.8002 10.7999C3.47471 10.7999 2.4002 9.72539 2.4002 8.3999C2.4002 7.07442 3.47471 5.9999 4.8002 5.9999C6.12568 5.9999 7.2002 7.07442 7.2002 8.3999Z" fill="white" />
  <path d="M19.2002 20.3999V16.7999C19.2002 15.5349 18.874 14.3461 18.3011 13.3131C18.5885 13.2392 18.8897 13.1999 19.2002 13.1999C21.1884 13.1999 22.8002 14.8117 22.8002 16.7999V20.3999H19.2002Z" fill="white" />
  <path d="M5.69931 13.3131C5.12641 14.3461 4.8002 15.5349 4.8002 16.7999V20.3999H1.2002V16.7999C1.2002 14.8117 2.81197 13.1999 4.8002 13.1999C5.11065 13.1999 5.41192 13.2392 5.69931 13.3131Z" fill="white" />
</svg>
