<svg width="24" height="24" viewBox="0 0 24 24" fill="none" xmlns="http://www.w3.org/2000/svg">
  <path fill-rule="evenodd" clip-rule="evenodd" d="M12.0001 21.5999C6.69816 21.5999 2.4001 17.3018 2.4001 11.9999C2.4001 6.69797 6.69816 2.3999 12.0001 2.3999C17.302 2.3999 21.6001 6.69797 21.6001 11.9999C21.6001 17.3018 17.302 21.5999 12.0001 21.5999ZM15.6001 10.7999C14.9374 10.7999 14.4001 10.2626 14.4001 9.5999C14.4001 8.93716 14.9374 8.3999 15.6001 8.3999C16.2628 8.3999 16.8001 8.93716 16.8001 9.5999C16.8001 10.2626 16.2628 10.7999 15.6001 10.7999ZM7.2001 9.5999C7.2001 10.2626 7.73736 10.7999 8.4001 10.7999C9.06284 10.7999 9.6001 10.2626 9.6001 9.5999C9.6001 8.93716 9.06284 8.3999 8.4001 8.3999C7.73736 8.3999 7.2001 8.93716 7.2001 9.5999ZM7.75746 16.2424C7.28883 15.7738 7.28883 15.014 7.75746 14.5454C8.22608 14.0767 8.98588 14.0767 9.45451 14.5454C10.8604 15.9513 13.1398 15.9513 14.5457 14.5454C15.0143 14.0767 15.7741 14.0767 16.2427 14.5454C16.7114 15.014 16.7114 15.7738 16.2427 16.2424C13.8996 18.5856 10.1006 18.5856 7.75746 16.2424Z" fill="white" />
</svg>
