<svg xmlns="http://www.w3.org/2000/svg" width="242" height="25" viewBox="0.5178220272064209 0.1835940033197403 241.44218468666077 20.66140578687191" fill="none"><path fill-rule="evenodd" clip-rule="evenodd" d="M241.96 15.6252V11.5538V2.68018H224.939L222.811 4.97688V17.0868H228.13V20.845H230.471L233.024 18.1307H239.407L241.96 15.6252ZM229.407 15.4165H226.003C225.769 15.4165 225.577 15.2286 225.577 14.9989V4.76817C225.577 4.5385 225.769 4.35059 226.003 4.35059H239.62C239.854 4.35059 240.045 4.5385 240.045 4.76817V12.7022C240.045 12.8171 240.003 12.9215 239.923 12.9998L237.582 15.2965C237.503 15.3748 237.391 15.4165 237.279 15.4165H233.37L230.072 17.6401C230.003 17.6871 229.918 17.7132 229.832 17.7132C229.763 17.7132 229.699 17.6976 229.636 17.6662C229.492 17.5932 229.407 17.4522 229.407 17.2956V15.4165Z" fill="white"/><path d="M235.79 11.7627V7.58691H234.088V11.7627H235.79ZM231.535 11.7627V7.58691H229.833V11.7627H231.535Z" fill="white"/><path d="M164.61 0.183594H149.99C147.126 0.183594 144.8 2.55085 144.8 5.4644V12.8973C144.8 15.8163 147.126 18.1781 149.99 18.1781H164.605C167.473 18.1781 169.794 15.8108 169.794 12.8973V5.4644C169.8 2.55085 167.473 0.183594 164.61 0.183594ZM161.096 9.54779L154.258 12.8642C154.073 12.9524 153.867 12.82 153.867 12.6103V5.7679C153.867 5.55821 154.084 5.42578 154.263 5.51958L161.101 9.04564C161.307 9.15048 161.302 9.44846 161.096 9.54779Z" fill="#FF1313"/><path fill-rule="evenodd" clip-rule="evenodd" d="M90.2138 4.42967C89.4408 4.75167 88.6098 4.96667 87.7388 5.06467C88.6288 4.56467 89.3118 3.77267 89.6338 2.83067C88.7998 3.29267 87.8778 3.62867 86.8958 3.81067C86.1108 3.02467 84.9898 2.53467 83.7508 2.53467C81.3708 2.53467 79.4398 4.34367 79.4398 6.57367C79.4398 6.89067 79.4778 7.19967 79.5518 7.49467C75.9698 7.32567 72.7938 5.71767 70.6678 3.27467C70.2968 3.87167 70.0848 4.56467 70.0848 5.30567C70.0848 6.70567 70.8458 7.94367 72.0018 8.66767C71.2958 8.64567 70.6318 8.46467 70.0498 8.16167C70.0498 8.17967 70.0498 8.19467 70.0498 8.21367C70.0498 10.1707 71.5348 11.8027 73.5068 12.1737C73.1458 12.2657 72.7638 12.3137 72.3718 12.3137C72.0938 12.3137 71.8238 12.2897 71.5608 12.2437C72.1088 13.8467 73.7008 15.0157 75.5868 15.0487C74.1118 16.1317 72.2538 16.7767 70.2338 16.7767C69.8858 16.7767 69.5428 16.7577 69.2058 16.7207C71.1128 17.8657 73.3788 18.5357 75.8128 18.5357C83.7408 18.5357 88.0758 12.3797 88.0758 7.04267C88.0758 6.86667 88.0708 6.69367 88.0628 6.51967C88.9048 5.94967 89.6358 5.23867 90.2138 4.42967Z" fill="white"/><path fill-rule="evenodd" clip-rule="evenodd" d="M6.65382 19.1726H2.56282V9.67859H0.517822V6.40559H2.56282V4.44159C2.56282 1.77259 3.71782 0.183594 6.99582 0.183594H9.72582V3.45659H8.02082C6.74282 3.45659 6.65882 3.91459 6.65882 4.76859L6.65382 6.40559H9.74582L9.38382 9.67859H6.65382V19.1726Z" fill="white"/></svg>