<svg xmlns="http://www.w3.org/2000/svg" width="32" height="25" viewBox="222.81100463867188 2.680180072784424 19.149002075195312 18.164819717407227" fill="none"><path fill-rule="evenodd" clip-rule="evenodd" d="M241.96 15.6252V11.5538V2.68018H224.939L222.811 4.97688V17.0868H228.13V20.845H230.471L233.024 18.1307H239.407L241.96 15.6252ZM229.407 15.4165H226.003C225.769 15.4165 225.577 15.2286 225.577 14.9989V4.76817C225.577 4.5385 225.769 4.35059 226.003 4.35059H239.62C239.854 4.35059 240.045 4.5385 240.045 4.76817V12.7022C240.045 12.8171 240.003 12.9215 239.923 12.9998L237.582 15.2965C237.503 15.3748 237.391 15.4165 237.279 15.4165H233.37L230.072 17.6401C230.003 17.6871 229.918 17.7132 229.832 17.7132C229.763 17.7132 229.699 17.6976 229.636 17.6662C229.492 17.5932 229.407 17.4522 229.407 17.2956V15.4165Z" fill="white"/><path d="M235.79 11.7627V7.58691H234.088V11.7627H235.79ZM231.535 11.7627V7.58691H229.833V11.7627H231.535Z" fill="white"/></svg>