<svg xmlns="http://www.w3.org/2000/svg" width="32" height="25" viewBox="69.20580291748047 2.534670114517212 21.00799560546875 16.00102996826172" fill="none"><path fill-rule="evenodd" clip-rule="evenodd" d="M90.2138 4.42967C89.4408 4.75167 88.6098 4.96667 87.7388 5.06467C88.6288 4.56467 89.3118 3.77267 89.6338 2.83067C88.7998 3.29267 87.8778 3.62867 86.8958 3.81067C86.1108 3.02467 84.9898 2.53467 83.7508 2.53467C81.3708 2.53467 79.4398 4.34367 79.4398 6.57367C79.4398 6.89067 79.4778 7.19967 79.5518 7.49467C75.9698 7.32567 72.7938 5.71767 70.6678 3.27467C70.2968 3.87167 70.0848 4.56467 70.0848 5.30567C70.0848 6.70567 70.8458 7.94367 72.0018 8.66767C71.2958 8.64567 70.6318 8.46467 70.0498 8.16167C70.0498 8.17967 70.0498 8.19467 70.0498 8.21367C70.0498 10.1707 71.5348 11.8027 73.5068 12.1737C73.1458 12.2657 72.7638 12.3137 72.3718 12.3137C72.0938 12.3137 71.8238 12.2897 71.5608 12.2437C72.1088 13.8467 73.7008 15.0157 75.5868 15.0487C74.1118 16.1317 72.2538 16.7767 70.2338 16.7767C69.8858 16.7767 69.5428 16.7577 69.2058 16.7207C71.1128 17.8657 73.3788 18.5357 75.8128 18.5357C83.7408 18.5357 88.0758 12.3797 88.0758 7.04267C88.0758 6.86667 88.0708 6.69367 88.0628 6.51967C88.9048 5.94967 89.6358 5.23867 90.2138 4.42967Z" fill="white"/></svg>