<svg width="922" height="286" viewBox="0 0 922 286" fill="none" xmlns="http://www.w3.org/2000/svg">
<g filter="url(#filter0_d_695_19885)">
<path d="M10.5 15.1602C10.5 12.3987 12.7386 10.1602 15.5 10.1602H479.02H771.643H797.791C798.287 10.1602 798.78 10.2339 799.254 10.379L907.963 43.6431C910.065 44.2862 911.5 46.2264 911.5 48.4243V52.9552V270.16C911.5 272.922 909.261 275.16 906.5 275.16H461H235.75H124.209C123.713 275.16 123.22 275.086 122.746 274.941L14.037 241.677C11.9353 241.034 10.5 239.094 10.5 236.896V208.91V142.66V15.1602Z" fill="#170D1C" fill-opacity="0.5" shape-rendering="crispEdges"/>
<path d="M15.5 11.1602H479.02H771.643H797.791C798.188 11.1602 798.582 11.2192 798.961 11.3352L907.67 44.5993C909.352 45.1138 910.5 46.6659 910.5 48.4243V52.9552V270.16C910.5 272.369 908.709 274.16 906.5 274.16H461H235.75H124.209C123.812 274.16 123.418 274.101 123.039 273.985L14.3296 240.721C12.6482 240.207 11.5 238.654 11.5 236.896V208.91V142.66V15.1602C11.5 12.951 13.2909 11.1602 15.5 11.1602Z" stroke="url(#paint0_linear_695_19885)" stroke-width="2" shape-rendering="crispEdges"/>
</g>
<defs>
<filter id="filter0_d_695_19885" x="0.5" y="0.160156" width="921" height="285" filterUnits="userSpaceOnUse" color-interpolation-filters="sRGB">
<feFlood flood-opacity="0" result="BackgroundImageFix"/>
<feColorMatrix in="SourceAlpha" type="matrix" values="0 0 0 0 0 0 0 0 0 0 0 0 0 0 0 0 0 0 127 0" result="hardAlpha"/>
<feOffset/>
<feGaussianBlur stdDeviation="5"/>
<feComposite in2="hardAlpha" operator="out"/>
<feColorMatrix type="matrix" values="0 0 0 0 0.47451 0 0 0 0 0.913725 0 0 0 0 0.309804 0 0 0 0.5 0"/>
<feBlend mode="normal" in2="BackgroundImageFix" result="effect1_dropShadow_695_19885"/>
<feBlend mode="normal" in="SourceGraphic" in2="effect1_dropShadow_695_19885" result="shape"/>
</filter>
<linearGradient id="paint0_linear_695_19885" x1="10.5" y1="275.16" x2="893.18" y2="105.243" gradientUnits="userSpaceOnUse">
<stop stop-color="#FFDE00"/>
<stop offset="1" stop-color="#43F272"/>
</linearGradient>
</defs>
</svg>
