<svg width="172" height="172" viewBox="0 0 172 172" fill="none" xmlns="http://www.w3.org/2000/svg">
<g clip-path="url(#clip0_695_26861)">
<g filter="url(#filter0_f_695_26861)">
<path d="M86 122C105.882 122 122 105.882 122 86C122 66.1177 105.882 50 86 50C66.1177 50 50 66.1177 50 86C50 105.882 66.1177 122 86 122Z" fill="white"/>
<path d="M86 122C105.882 122 122 105.882 122 86C122 66.1177 105.882 50 86 50C66.1177 50 50 66.1177 50 86C50 105.882 66.1177 122 86 122Z" fill="#43F272"/>
</g>
<path d="M88.5 127C113.077 127 133 107.077 133 82.5C133 57.9233 113.077 38 88.5 38C63.9233 38 44 57.9233 44 82.5C44 107.077 63.9233 127 88.5 127Z" fill="#43F272"/>
<path d="M88.5 127C113.077 127 133 107.077 133 82.5C133 57.9233 113.077 38 88.5 38C63.9233 38 44 57.9233 44 82.5C44 107.077 63.9233 127 88.5 127Z" fill="url(#paint0_linear_695_26861)" fill-opacity="0.5"/>
<g clip-path="url(#clip1_695_26861)">
<path d="M93.6033 99.6836C95.7941 100.455 98.1444 99.7643 99.7169 98.1918L101.914 95.9946C103.491 94.4199 103.329 91.8168 101.568 90.4462L96.6675 86.6339M93.6033 99.6836L96.6675 86.6339M93.6033 99.6836C87.9958 97.7106 82.9045 94.5003 78.707 90.2911L93.6033 99.6836ZM96.6675 86.6339L95.7465 87.8179C95.7467 87.818 95.7469 87.8182 95.7471 87.8184L96.6675 86.6339ZM70.7294 74.899L69.3145 75.3969L70.7297 74.8996L70.7294 74.899ZM70.7294 74.899C70.1739 73.3174 70.6554 71.5576 71.8691 70.344L74.0655 68.1475C74.0656 68.1474 74.0658 68.1473 74.0659 68.1471C74.2872 67.9262 74.553 67.7549 74.8455 67.6444C75.1382 67.5338 75.4511 67.4867 75.7633 67.5062C76.0756 67.5257 76.3802 67.6114 76.6569 67.7575C76.9336 67.9036 77.176 68.1069 77.3682 68.3538L77.3682 68.3538M70.7294 74.899L77.3682 68.3538M77.3682 68.3538L81.1822 73.2536C81.1824 73.2538 81.1825 73.2539 81.1826 73.2541C81.598 73.7885 81.745 74.4853 81.5804 75.1436L81.5804 75.1439M77.3682 68.3538L81.5804 75.1439M81.5804 75.1439L80.418 79.7977L80.4178 79.7983M81.5804 75.1439L80.4178 79.7983M80.4178 79.7983C80.2952 80.2903 80.3018 80.8056 80.4371 81.2943C80.5723 81.783 80.8317 82.2284 81.1899 82.5872L81.1909 82.5882M80.4178 79.7983L81.1909 82.5882M81.1909 82.5882L86.412 87.8093L86.4125 87.8099M81.1909 82.5882L86.4125 87.8099M86.4125 87.8099C86.7718 88.1688 87.218 88.4286 87.7075 88.5639C88.1966 88.6991 88.7125 88.7054 89.2048 88.5822C89.2051 88.5821 89.2055 88.582 89.2058 88.5819L93.8564 87.4198L93.8566 87.4198M86.4125 87.8099L93.8566 87.4198M93.8566 87.4198C94.1813 87.3386 94.5203 87.3323 94.8478 87.4013L95.1572 85.9336L93.8566 87.4198ZM100.647 91.6301C100.647 91.6301 100.647 91.6301 100.647 91.6301L101.558 90.4587L100.647 91.6301Z" stroke="white" stroke-width="3"/>
</g>
<path d="M139.544 55.5789C138.182 55.7357 136.773 55.9284 135.315 56.1499C134.748 56.2383 134.171 56.3236 133.59 56.4202C133.299 56.9032 133.001 57.3903 132.684 57.8786C133.833 57.6639 134.951 57.477 136.035 57.2994C136.985 57.1518 137.914 57.0165 138.814 56.8977C149.763 55.4448 157.032 56.2883 158.443 59.8173C159.993 63.6861 154.18 70.087 143.45 77.3801C134.985 83.1358 123.448 89.4435 110.06 95.5219C106.194 97.2667 102.173 99.0058 98.0317 100.7C97.1179 101.075 96.1927 101.447 95.2563 101.816C76.5015 109.293 58.8677 114.5 45.41 116.905C44.8406 117.005 44.2783 117.101 43.7232 117.192C43.2997 117.265 42.8905 117.329 42.4742 117.398C30.2104 119.304 21.9831 118.594 20.4729 114.827C18.9845 111.113 24.263 105.087 34.1502 98.1762C34.0493 97.7381 33.9555 97.2959 33.8729 96.8567C21.8417 105.368 15.3782 113.11 17.3506 118.023C19.1714 122.575 27.8799 123.905 40.7237 122.427C41.2147 122.373 41.7087 122.307 42.214 122.245C43.352 122.093 44.5298 121.929 45.7207 121.738C57.7853 119.832 72.7371 115.819 88.7362 109.952C91.5286 108.932 94.3614 107.85 97.2092 106.712C98.4981 106.197 99.7686 105.683 101.031 105.154C118.147 98.079 133.098 90.1822 144.053 82.7688C157.566 73.6309 164.998 65.2158 162.903 59.9914C161.097 55.431 152.384 54.0941 139.544 55.5789Z" fill="url(#paint1_linear_695_26861)"/>
</g>
<defs>
<filter id="filter0_f_695_26861" x="0" y="0" width="172" height="172" filterUnits="userSpaceOnUse" color-interpolation-filters="sRGB">
<feFlood flood-opacity="0" result="BackgroundImageFix"/>
<feBlend mode="normal" in="SourceGraphic" in2="BackgroundImageFix" result="shape"/>
<feGaussianBlur stdDeviation="25" result="effect1_foregroundBlur_695_26861"/>
</filter>
<linearGradient id="paint0_linear_695_26861" x1="48.5" y1="135" x2="142.697" y2="88.7975" gradientUnits="userSpaceOnUse">
<stop stop-color="#FFDE00"/>
<stop offset="1" stop-color="#43F272"/>
</linearGradient>
<linearGradient id="paint1_linear_695_26861" x1="17" y1="123.003" x2="217.789" y2="74.3874" gradientUnits="userSpaceOnUse">
<stop stop-color="#FFDE00"/>
<stop offset="1" stop-color="#43F272"/>
</linearGradient>
<clipPath id="clip0_695_26861">
<rect width="172" height="172" fill="white"/>
</clipPath>
<clipPath id="clip1_695_26861">
<rect width="34" height="34" fill="white" transform="translate(69 66)"/>
</clipPath>
</defs>
</svg>
