<svg width="172" height="172" viewBox="0 0 172 172" fill="none" xmlns="http://www.w3.org/2000/svg">
<g clip-path="url(#clip0_695_26850)">
<g filter="url(#filter0_f_695_26850)">
<path d="M86 122C105.882 122 122 105.882 122 86C122 66.1177 105.882 50 86 50C66.1177 50 50 66.1177 50 86C50 105.882 66.1177 122 86 122Z" fill="white"/>
<path d="M86 122C105.882 122 122 105.882 122 86C122 66.1177 105.882 50 86 50C66.1177 50 50 66.1177 50 86C50 105.882 66.1177 122 86 122Z" fill="#43F272"/>
</g>
<path d="M88.5 127C113.077 127 133 107.077 133 82.5C133 57.9233 113.077 38 88.5 38C63.9233 38 44 57.9233 44 82.5C44 107.077 63.9233 127 88.5 127Z" fill="#43F272"/>
<path d="M88.5 127C113.077 127 133 107.077 133 82.5C133 57.9233 113.077 38 88.5 38C63.9233 38 44 57.9233 44 82.5C44 107.077 63.9233 127 88.5 127Z" fill="url(#paint0_linear_695_26850)" fill-opacity="0.5"/>
<path d="M101.165 82.7093L99.1307 81L101.165 79.2907L105.5 75.6482V86.3518L101.165 82.7093ZM98.7 80.6381V81.3619V83.8577V89.5714C98.7 90.6457 97.8349 91.5 96.8 91.5H76.4C75.3651 91.5 74.5 90.6457 74.5 89.5714V72.4286C74.5 71.3543 75.3651 70.5 76.4 70.5H96.8C97.8349 70.5 98.7 71.3543 98.7 72.4286V78.1423V80.6381Z" stroke="white" stroke-width="3"/>
<path d="M139.544 55.5789C138.182 55.7357 136.773 55.9284 135.315 56.1499C134.748 56.2383 134.171 56.3236 133.59 56.4202C133.299 56.9032 133.001 57.3903 132.684 57.8786C133.833 57.6639 134.951 57.477 136.035 57.2994C136.985 57.1518 137.914 57.0165 138.814 56.8977C149.763 55.4448 157.032 56.2883 158.443 59.8173C159.993 63.6861 154.18 70.087 143.45 77.3801C134.985 83.1358 123.448 89.4435 110.06 95.5219C106.194 97.2667 102.173 99.0058 98.0317 100.7C97.1179 101.075 96.1927 101.447 95.2563 101.816C76.5015 109.293 58.8677 114.5 45.41 116.905C44.8406 117.005 44.2783 117.101 43.7232 117.192C43.2997 117.265 42.8905 117.329 42.4742 117.398C30.2104 119.304 21.9831 118.594 20.4729 114.827C18.9845 111.113 24.263 105.087 34.1502 98.1762C34.0493 97.7381 33.9555 97.2959 33.8729 96.8567C21.8417 105.368 15.3782 113.11 17.3506 118.023C19.1714 122.575 27.8799 123.905 40.7237 122.427C41.2147 122.373 41.7087 122.307 42.214 122.245C43.352 122.093 44.5298 121.929 45.7207 121.738C57.7853 119.832 72.7371 115.819 88.7362 109.952C91.5286 108.932 94.3614 107.85 97.2092 106.712C98.4981 106.197 99.7686 105.683 101.031 105.154C118.147 98.079 133.098 90.1822 144.053 82.7688C157.566 73.6309 164.998 65.2158 162.903 59.9914C161.097 55.431 152.384 54.0941 139.544 55.5789Z" fill="url(#paint1_linear_695_26850)"/>
<path d="M40.4562 55.5789C41.8182 55.7357 43.2272 55.9284 44.6852 56.1499C45.2522 56.2383 45.8292 56.3236 46.4102 56.4202C46.7012 56.9032 46.9992 57.3903 47.3162 57.8786C46.1672 57.6639 45.0492 57.477 43.9652 57.2994C43.0152 57.1518 42.0862 57.0165 41.1862 56.8977C30.2372 55.4448 22.9682 56.2883 21.5572 59.8173C20.0072 63.6861 25.8202 70.087 36.5502 77.3801C45.0152 83.1358 56.5522 89.4435 69.9402 95.5219C73.8062 97.2667 77.8272 99.0058 81.9683 100.7C82.8821 101.075 83.8073 101.447 84.7437 101.816C103.498 109.293 121.132 114.5 134.59 116.905C135.159 117.005 135.722 117.101 136.277 117.192C136.7 117.265 137.109 117.329 137.526 117.398C149.79 119.304 158.017 118.594 159.527 114.827C161.015 111.113 155.737 105.087 145.85 98.1762C145.951 97.7381 146.045 97.2959 146.127 96.8567C158.158 105.368 164.622 113.11 162.649 118.023C160.829 122.575 152.12 123.905 139.276 122.427C138.785 122.373 138.291 122.307 137.786 122.245C136.648 122.093 135.47 121.929 134.279 121.738C122.215 119.832 107.263 115.819 91.2638 109.952C88.4714 108.932 85.6386 107.85 82.7908 106.712C81.5019 106.197 80.2314 105.683 78.9692 105.154C61.8532 98.079 46.9022 90.1822 35.9472 82.7688C22.4342 73.6309 15.0022 65.2158 17.0972 59.9914C18.9032 55.431 27.6162 54.0941 40.4562 55.5789Z" fill="url(#paint2_linear_695_26850)"/>
</g>
<defs>
<filter id="filter0_f_695_26850" x="0" y="0" width="172" height="172" filterUnits="userSpaceOnUse" color-interpolation-filters="sRGB">
<feFlood flood-opacity="0" result="BackgroundImageFix"/>
<feBlend mode="normal" in="SourceGraphic" in2="BackgroundImageFix" result="shape"/>
<feGaussianBlur stdDeviation="25" result="effect1_foregroundBlur_695_26850"/>
</filter>
<linearGradient id="paint0_linear_695_26850" x1="48.5" y1="135" x2="142.697" y2="88.7975" gradientUnits="userSpaceOnUse">
<stop stop-color="#FFDE00"/>
<stop offset="1" stop-color="#43F272"/>
</linearGradient>
<linearGradient id="paint1_linear_695_26850" x1="17" y1="123.003" x2="163.418" y2="105.174" gradientUnits="userSpaceOnUse">
<stop stop-color="#FFDE00"/>
<stop offset="1" stop-color="#43F272"/>
</linearGradient>
<linearGradient id="paint2_linear_695_26850" x1="114" y1="106" x2="-7.83704" y2="88.3051" gradientUnits="userSpaceOnUse">
<stop stop-color="#FFDE00"/>
<stop offset="1" stop-color="#43F272"/>
</linearGradient>
<clipPath id="clip0_695_26850">
<rect width="172" height="172" fill="white"/>
</clipPath>
</defs>
</svg>
