<svg width="49" height="78" viewBox="0 0 49 78" fill="none" xmlns="http://www.w3.org/2000/svg">
<g clip-path="url(#clip0_695_26828)">
<path d="M41.65 -0.000488281H7.35C5.40066 -0.000488281 3.53116 0.769934 2.15277 2.14129C0.774373 3.51265 0 5.37262 0 7.31201L0 70.687C0 72.6264 0.774373 74.4864 2.15277 75.8577C3.53116 77.2291 5.40066 77.9995 7.35 77.9995H41.65C43.5993 77.9995 45.4688 77.2291 46.8472 75.8577C48.2256 74.4864 49 72.6264 49 70.687V7.31201C49 5.37262 48.2256 3.51265 46.8472 2.14129C45.4688 0.769934 43.5993 -0.000488281 41.65 -0.000488281ZM24.5 73.1245C23.8574 73.1241 23.2211 72.9977 22.6276 72.7527C22.0341 72.5076 21.4949 72.1487 21.0408 71.6963C20.1237 70.7826 19.6089 69.544 19.6098 68.2528C19.6102 67.6134 19.7372 66.9804 19.9835 66.3899C20.2299 65.7994 20.5907 65.2629 21.0454 64.8112C21.9637 63.8988 23.2087 63.3867 24.5065 63.3875C25.8044 63.3884 27.0487 63.9021 27.9658 64.8158C28.8829 65.7294 29.3976 66.9681 29.3967 68.2593C29.3959 69.5505 28.8795 70.7884 27.9612 71.7009C27.0428 72.6133 25.7978 73.1254 24.5 73.1245Z" fill="url(#paint0_linear_695_26828)"/>
</g>
<defs>
<linearGradient id="paint0_linear_695_26828" x1="-1.75001" y1="112.965" x2="51.5457" y2="9.38586" gradientUnits="userSpaceOnUse">
<stop stop-color="#FFDE00"/>
<stop offset="1" stop-color="#43F272"/>
</linearGradient>
<clipPath id="clip0_695_26828">
<rect width="49" height="78" fill="white" transform="translate(0 -0.000488281)"/>
</clipPath>
</defs>
</svg>
