<svg width="69" height="49" viewBox="0 0 69 49" fill="none" xmlns="http://www.w3.org/2000/svg">
<path d="M68.05 42.2743V6.72432C68.05 3.44582 65.4035 0.799316 62.125 0.799316H6.78547C3.50697 0.799316 0.860474 3.44582 0.860474 6.72432V42.2743C0.860474 45.5528 3.50697 48.1993 6.78547 48.1993H62.125C65.4035 48.1993 68.05 45.5528 68.05 42.2743ZM62.8755 6.28982C64.179 7.59332 63.468 8.93632 62.757 9.60782L46.72 24.3018L62.125 40.3388C62.599 40.8918 62.915 41.7608 62.362 42.3533C61.8485 42.9853 60.6635 42.9458 60.15 42.5508L42.8885 27.8173L34.4355 35.5198L26.022 27.8173L8.76047 42.5508C8.24697 42.9458 7.06197 42.9853 6.54847 42.3533C5.99547 41.7608 6.31147 40.8918 6.78547 40.3388L22.1905 24.3018L6.15347 9.60782C5.44247 8.93632 4.73147 7.59332 6.03497 6.28982C7.33847 4.98632 8.68147 5.61832 9.78747 6.56632L34.4355 26.4743L59.123 6.56632C60.229 5.61832 61.572 4.98632 62.8755 6.28982Z" fill="url(#paint0_linear_695_26821)"/>
<defs>
<linearGradient id="paint0_linear_695_26821" x1="-1.53916" y1="69.4476" x2="15.717" y2="-6.22633" gradientUnits="userSpaceOnUse">
<stop stop-color="#FFDE00"/>
<stop offset="1" stop-color="#43F272"/>
</linearGradient>
</defs>
</svg>
