<svg width="30" height="30" viewBox="0 0 30 30" fill="none" xmlns="http://www.w3.org/2000/svg">
<g clip-path="url(#clip0_695_19423)">
<path d="M14.9998 29.9996C23.284 29.9996 29.9996 23.284 29.9996 14.9998C29.9996 6.71565 23.284 0 14.9998 0C6.71565 0 0 6.71565 0 14.9998C0 23.284 6.71565 29.9996 14.9998 29.9996Z" fill="url(#paint0_linear_695_19423)"/>
<path d="M30 15.0001C30 14.6346 29.9862 14.2724 29.9606 13.9134L23.7438 7.69678L6.25616 14.5756L12.947 21.2666L13.0348 21.5825L13.1484 21.4679L13.1489 21.4684L13.0348 21.5825L20.4362 28.9839C26.0331 26.8065 30 21.3669 30 15.0001Z" fill="url(#paint1_linear_695_19423)"/>
<path d="M13.5432 17.1854L20.322 22.3034L23.7438 7.69678L6.2561 14.5756L11.5774 16.3382L21.2889 9.82396L13.5432 17.1854Z" fill="white"/>
<path d="M11.5774 16.3384L13.0348 21.5828L13.5432 17.1857L21.2889 9.82422L11.5774 16.3384Z" fill="#D2D2D7"/>
<path d="M15.7464 18.8489L13.0348 21.5827L13.5432 17.1855L15.7464 18.8489Z" fill="#B9B9BE"/>
</g>
<defs>
<linearGradient id="paint0_linear_695_19423" x1="1.90154e-07" y1="29.9997" x2="30.3814" y2="28.2795" gradientUnits="userSpaceOnUse">
<stop stop-color="#FFDE00"/>
<stop offset="1" stop-color="#43F272"/>
</linearGradient>
<linearGradient id="paint1_linear_695_19423" x1="6.25616" y1="28.9839" x2="30.2834" y2="27.4665" gradientUnits="userSpaceOnUse">
<stop stop-color="#FFDE00"/>
<stop offset="1" stop-color="#43F272"/>
</linearGradient>
<clipPath id="clip0_695_19423">
<rect width="30" height="30" fill="white"/>
</clipPath>
</defs>
</svg>
