<svg width="103" height="45" viewBox="0 0 103 45" fill="none" xmlns="http://www.w3.org/2000/svg">
<path d="M11.0727 33V13.68H15.8727L23.1627 23.91V13.68H28.8027V33H23.9727L16.7127 22.8V33H11.0727ZM31.4926 33V13.68H37.1326V33H31.4926ZM39.8422 33V13.68H49.8022C51.3822 13.68 52.6822 14 53.7022 14.64C54.7422 15.26 55.5122 16.11 56.0122 17.19C56.5122 18.27 56.7622 19.47 56.7622 20.79C56.7622 22.15 56.4722 23.36 55.8922 24.42C55.3122 25.48 54.4922 26.31 53.4322 26.91C52.3722 27.51 51.1222 27.81 49.6822 27.81H45.4822V33H39.8422ZM45.4822 23.49H48.3922C49.2722 23.49 49.9222 23.24 50.3422 22.74C50.7822 22.24 51.0022 21.59 51.0022 20.79C51.0022 19.93 50.8022 19.25 50.4022 18.75C50.0022 18.25 49.3822 18 48.5422 18H45.4822V23.49ZM64.5999 33.3C63.2999 33.3 62.0699 33.2 60.9099 33C59.7499 32.78 58.7599 32.48 57.9399 32.1V27.45C58.8399 27.87 59.8399 28.21 60.9399 28.47C62.0399 28.73 63.0699 28.86 64.0299 28.86C65.0299 28.86 65.7799 28.78 66.2799 28.62C66.7999 28.44 67.0599 28.05 67.0599 27.45C67.0599 27.03 66.9099 26.7 66.6099 26.46C66.3299 26.22 65.8799 26 65.2599 25.8C64.6599 25.6 63.8699 25.35 62.8899 25.05C61.5899 24.63 60.5599 24.17 59.7999 23.67C59.0399 23.17 58.4899 22.56 58.1499 21.84C57.8299 21.12 57.6699 20.24 57.6699 19.2C57.6699 17.3 58.3399 15.86 59.6799 14.88C61.0399 13.88 63.0499 13.38 65.7099 13.38C66.7699 13.38 67.8599 13.47 68.9799 13.65C70.1199 13.83 71.0399 14.03 71.7399 14.25V18.93C70.7999 18.55 69.8999 18.28 69.0399 18.12C68.1799 17.96 67.3699 17.88 66.6099 17.88C65.7299 17.88 64.9799 17.95 64.3599 18.09C63.7399 18.23 63.4299 18.59 63.4299 19.17C63.4299 19.67 63.6899 20.04 64.2099 20.28C64.7499 20.5 65.6999 20.79 67.0599 21.15C68.6399 21.57 69.8399 22.08 70.6599 22.68C71.4999 23.28 72.0699 23.98 72.3699 24.78C72.6699 25.56 72.8199 26.45 72.8199 27.45C72.8199 29.21 72.1399 30.63 70.7799 31.71C69.4199 32.77 67.3599 33.3 64.5999 33.3ZM79.9229 33V25.92L72.9629 13.68H78.8429L82.7429 20.97L86.6429 13.68H92.5229L85.5629 25.92V33H79.9229Z" fill="white"/>
</svg>
