<svg width="525" height="61" viewBox="0 0 525 61" fill="none" xmlns="http://www.w3.org/2000/svg">
<path d="M5 0.5H273H443.507H459.149L523.059 8.22556C523.882 8.32496 524.5 9.02272 524.5 9.85093V56C524.5 58.4853 522.485 60.5 520 60.5H262.5H131.25H65.851L4.45997 53.079C2.2 52.8058 0.5 50.8879 0.5 48.6115V45.75V30.5V5C0.5 2.51472 2.51472 0.5 5 0.5Z" fill="#170D1C" fill-opacity="0.5"/>
<path d="M5 0.5H273H443.507H459.149L523.059 8.22556C523.882 8.32496 524.5 9.02272 524.5 9.85093V56C524.5 58.4853 522.485 60.5 520 60.5H262.5H131.25H65.851L4.45997 53.079C2.2 52.8058 0.5 50.8879 0.5 48.6115V45.75V30.5V5C0.5 2.51472 2.51472 0.5 5 0.5Z" stroke="white"/>
<path d="M5 0.5H273H443.507H459.149L523.059 8.22556C523.882 8.32496 524.5 9.02272 524.5 9.85093V56C524.5 58.4853 522.485 60.5 520 60.5H262.5H131.25H65.851L4.45997 53.079C2.2 52.8058 0.5 50.8879 0.5 48.6115V45.75V30.5V5C0.5 2.51472 2.51472 0.5 5 0.5Z" stroke="url(#paint0_linear_472_4455)"/>
<defs>
<linearGradient id="paint0_linear_472_4455" x1="3.32774e-06" y1="61" x2="431.036" y2="-149.038" gradientUnits="userSpaceOnUse">
<stop stop-color="#FFDE00"/>
<stop offset="1" stop-color="#43F272"/>
</linearGradient>
</defs>
</svg>
