<svg width="216" height="144" viewBox="0 0 216 144" fill="none" xmlns="http://www.w3.org/2000/svg">
<path d="M212.247 9.94639C214.751 8.84074 215.887 5.90401 214.781 3.39783C213.674 0.891646 210.738 -0.247139 208.234 0.858503C206.151 1.77815 205.027 3.98196 205.349 6.10648L5.75438 7.97889L5.75428 133.804C3.58805 133.585 1.46805 134.801 0.645086 136.928C-0.347703 139.493 0.924264 142.374 3.47856 143.345C6.04319 144.34 8.92187 143.069 9.89125 140.514C10.7142 138.388 9.96584 136.059 8.21763 134.76L7.82587 9.94708L206.415 8.51899C207.788 10.2357 210.164 10.866 212.247 9.94639Z" fill="url(#paint0_linear_472_4264)"/>
<defs>
<linearGradient id="paint0_linear_472_4264" x1="21.7623" y1="135.901" x2="209.664" y2="-21.6486" gradientUnits="userSpaceOnUse">
<stop stop-color="#FFDE00"/>
<stop offset="1" stop-color="#43F272"/>
</linearGradient>
</defs>
</svg>
