<svg width="216" height="144" viewBox="0 0 216 144" fill="none" xmlns="http://www.w3.org/2000/svg">
<path d="M3.86279 9.94663C1.35855 8.84099 0.222085 5.90426 1.32858 3.39807C2.43508 0.891891 5.37091 -0.246894 7.87516 0.858747C9.95812 1.77839 11.0827 3.9822 10.76 6.10673L210.355 7.97914L210.355 133.805C212.521 133.586 214.641 134.801 215.464 136.928C216.457 139.493 215.185 142.374 212.631 143.346C210.066 144.34 207.188 143.07 206.218 140.514C205.395 138.388 206.144 136.059 207.892 134.76L208.284 9.94732L9.69483 8.51923C8.32163 10.236 5.94575 10.8663 3.86279 9.94663Z" fill="url(#paint0_linear_472_4266)"/>
<defs>
<linearGradient id="paint0_linear_472_4266" x1="194.347" y1="135.902" x2="6.44507" y2="-21.6484" gradientUnits="userSpaceOnUse">
<stop stop-color="#FFDE00"/>
<stop offset="1" stop-color="#43F272"/>
</linearGradient>
</defs>
</svg>
